<?xml version="1.0" standalone="no"?>
<!DOCTYPE svg PUBLIC "-//W3C//DTD SVG 20010904//EN"
 "http://www.w3.org/TR/2001/REC-SVG-20010904/DTD/svg10.dtd">
<svg version="1.0" xmlns="http://www.w3.org/2000/svg"
 width="1024.000000pt" height="1024.000000pt" viewBox="0 0 1024.000000 1024.000000"
 preserveAspectRatio="xMidYMid meet">

<g transform="translate(0.000000,1024.000000) scale(0.100000,-0.100000)"
fill="#000000" stroke="none">
<path d="M3982 8009 c-377 -50 -712 -364 -799 -749 -12 -55 -15 -279 -19
-1450 -2 -959 0 -1395 7 -1417 20 -63 85 -81 158 -43 21 10 75 53 120 95 l81
77 2 386 3 387 28 -105 c53 -203 211 -475 378 -653 l64 -67 -61 -61 -62 -62
-28 22 c-33 26 -99 28 -134 3 -14 -9 -199 -190 -411 -402 -364 -363 -388 -388
-409 -445 -30 -82 -30 -198 -1 -276 58 -153 227 -244 380 -205 34 9 77 26 97
40 35 24 234 214 626 598 145 142 220 222 224 241 11 47 -5 98 -43 136 l-36
36 79 72 c44 40 83 73 88 73 5 0 43 -17 85 -39 297 -151 724 -202 1055 -126
515 117 906 415 1129 860 43 87 107 270 107 307 0 10 3 18 8 18 4 0 6 -628 4
-1395 -1 -767 -5 -1395 -8 -1395 -4 0 -30 17 -58 37 -127 92 -1054 755 -1161
831 -66 47 -154 111 -195 142 -96 73 -146 100 -186 100 -33 0 -48 -9 -215
-131 -57 -42 -279 -203 -494 -359 -214 -156 -460 -336 -545 -400 -261 -197
-300 -222 -306 -205 -4 8 -3 23 1 32 3 10 3 80 -1 155 -5 106 -10 138 -20 138
-19 0 -308 -234 -329 -266 -25 -38 -19 -353 8 -402 69 -126 214 -184 339 -135
61 23 120 64 518 362 195 146 405 302 467 346 61 44 199 146 305 226 106 80
207 154 225 163 70 36 96 24 324 -146 85 -63 210 -155 279 -204 239 -173 524
-380 754 -547 127 -93 249 -179 271 -190 62 -33 183 -31 252 6 55 28 91 68
120 133 17 37 18 165 21 2503 3 2712 6 2545 -58 2724 -89 243 -302 461 -558
568 -159 66 -95 63 -1307 65 -605 1 -1128 -2 -1163 -7z m2298 -393 c197 -65
340 -209 398 -401 13 -41 17 -144 21 -568 3 -284 3 -517 0 -517 -4 0 -10 17
-14 38 -11 59 -71 206 -131 322 -272 523 -836 860 -1440 860 -451 0 -871 -178
-1174 -497 -162 -171 -282 -376 -366 -627 l-44 -131 4 525 c2 463 5 532 20
585 67 228 242 393 455 424 31 5 542 8 1136 7 1019 -1 1083 -2 1135 -20z
m-959 -651 c267 -46 489 -160 686 -349 114 -109 184 -204 253 -344 93 -189
123 -328 123 -567 0 -293 -60 -506 -209 -731 -150 -226 -431 -430 -695 -503
-177 -49 -413 -66 -569 -40 -337 54 -626 232 -827 509 -89 123 -164 295 -199
460 -27 121 -27 449 -1 568 39 175 97 311 199 464 183 273 490 473 820 533
100 18 317 18 419 0z"/>
</g>
</svg>
