<?xml version="1.0" standalone="no"?>
<!DOCTYPE svg PUBLIC "-//W3C//DTD SVG 20010904//EN"
 "http://www.w3.org/TR/2001/REC-SVG-20010904/DTD/svg10.dtd">
<svg version="1.0" xmlns="http://www.w3.org/2000/svg"
 width="1024.000000pt" height="1024.000000pt" viewBox="0 0 1024.000000 1024.000000"
 preserveAspectRatio="xMidYMid meet">

<g transform="translate(0.000000,1024.000000) scale(0.100000,-0.100000)"
fill="#000000" stroke="none">
<path d="M6210 7884 c-205 -37 -408 -122 -561 -235 -100 -74 -824 -790 -904
-894 -29 -38 -69 -99 -89 -135 -46 -85 -104 -261 -113 -341 -6 -59 -5 -62 13
-55 113 47 236 89 296 102 112 24 313 29 436 10 l103 -16 31 38 c69 82 607
616 663 659 125 95 229 133 381 140 296 15 536 -127 668 -394 97 -195 80 -454
-41 -657 -53 -89 -695 -731 -740 -741 l-33 -7 8 -56 c4 -31 7 -124 7 -207 -1
-130 -5 -164 -29 -258 -50 -198 -147 -384 -263 -508 -53 -57 -52 -57 85 -29
164 33 316 101 452 201 66 48 938 927 1028 1035 209 253 314 557 314 909 0
180 -18 295 -72 456 -78 234 -184 405 -359 580 -215 214 -479 354 -767 404
-109 19 -408 19 -514 -1z"/>
<path d="M4960 6153 c-239 -37 -419 -129 -585 -297 -196 -197 -289 -409 -302
-682 -13 -278 69 -524 247 -736 304 -364 810 -474 1235 -268 125 60 196 113
306 227 142 148 212 271 263 463 76 282 21 605 -144 851 -58 86 -198 223 -289
284 -165 109 -368 166 -583 164 -67 -1 -134 -3 -148 -6z m295 -733 c72 -34
148 -116 175 -187 28 -75 24 -183 -10 -261 -30 -70 -121 -154 -192 -178 -159
-55 -334 12 -413 158 -25 45 -30 67 -33 145 -4 86 -2 96 25 155 44 92 118 158
213 189 49 16 181 4 235 -21z"/>
<path d="M4025 5919 c-141 -38 -341 -136 -460 -225 -124 -93 -919 -888 -1009
-1009 -176 -237 -259 -506 -260 -835 0 -433 142 -783 438 -1075 181 -180 346
-283 574 -358 332 -111 714 -81 1042 81 141 70 237 146 429 341 95 97 289 293
431 436 266 270 315 327 380 448 40 75 100 239 100 276 0 20 -1 20 -57 -5 -99
-45 -223 -84 -317 -100 -109 -19 -388 -14 -478 9 l-56 14 -304 -304 c-406
-407 -458 -448 -625 -494 -66 -18 -95 -21 -188 -16 -181 9 -301 63 -435 197
-139 138 -200 285 -200 486 0 160 46 309 129 419 36 48 583 596 646 648 17 13
43 31 60 40 l30 15 0 194 c1 160 5 211 23 296 37 170 127 353 244 493 l49 59
-38 -1 c-21 0 -87 -14 -148 -30z"/>
</g>
</svg>
