<?xml version="1.0" standalone="no"?>
<!DOCTYPE svg PUBLIC "-//W3C//DTD SVG 20010904//EN"
 "http://www.w3.org/TR/2001/REC-SVG-20010904/DTD/svg10.dtd">
<svg version="1.0" xmlns="http://www.w3.org/2000/svg"
 width="1024.000000pt" height="1024.000000pt" viewBox="0 0 1024.000000 1024.000000"
 preserveAspectRatio="xMidYMid meet">

<g transform="translate(0.000000,1024.000000) scale(0.100000,-0.100000)"
fill="#000000" stroke="none">
<path d="M4940 8743 c-19 -1 -84 -8 -145 -13 -585 -56 -1140 -258 -1650 -600
-619 -416 -1125 -1045 -1398 -1735 -178 -451 -246 -871 -226 -1405 19 -517
133 -962 370 -1433 268 -534 701 -1035 1209 -1398 417 -298 927 -512 1423
-598 372 -65 680 -71 1052 -20 559 76 1089 289 1554 623 209 151 272 205 492
425 257 258 418 461 591 751 259 431 416 895 480 1415 19 160 16 622 -5 795
-94 747 -409 1418 -939 2000 -271 297 -559 528 -902 725 -390 223 -819 372
-1251 434 -222 32 -516 48 -655 34z m550 -388 c488 -74 842 -200 1250 -442
209 -124 479 -342 674 -543 536 -554 855 -1221 917 -1919 17 -194 7 -607 -20
-784 -41 -272 -148 -627 -262 -866 -409 -858 -1201 -1548 -2065 -1801 -307
-90 -544 -123 -879 -124 -257 -1 -371 10 -610 61 -433 90 -870 289 -1240 562
-687 507 -1158 1228 -1318 2021 -48 233 -60 367 -60 625 0 257 13 394 58 616
62 304 175 613 317 864 108 190 316 488 409 585 8 8 54 59 102 112 282 309
671 591 1070 775 321 147 642 230 1072 277 87 9 483 -4 585 -19z"/>
<path d="M3584 7170 c-92 -19 -144 -57 -315 -229 -204 -204 -224 -238 -224
-376 0 -158 -33 -118 665 -813 355 -353 611 -614 608 -622 -2 -8 -277 -286
-610 -619 -696 -696 -663 -656 -663 -821 0 -142 19 -175 217 -376 118 -120
175 -171 221 -195 59 -32 67 -34 167 -34 94 0 111 3 164 28 76 35 78 38 486
441 190 188 450 444 577 571 l233 229 582 -581 c321 -320 597 -592 613 -605
85 -68 164 -92 276 -86 129 8 173 36 371 236 205 207 223 237 223 378 0 162
24 132 -678 833 l-608 607 613 610 c701 699 673 664 673 819 -1 140 -21 173
-225 377 -131 132 -179 173 -223 193 -79 37 -160 49 -233 36 -129 -24 -122
-18 -776 -670 l-607 -604 -586 584 c-322 321 -611 601 -641 621 -87 59 -211
87 -300 68z"/>
</g>
</svg>
