<?xml version="1.0" standalone="no"?>
<!DOCTYPE svg PUBLIC "-//W3C//DTD SVG 20010904//EN"
 "http://www.w3.org/TR/2001/REC-SVG-20010904/DTD/svg10.dtd">
<svg version="1.0" xmlns="http://www.w3.org/2000/svg"
 width="1024.000000pt" height="1024.000000pt" viewBox="0 0 1024.000000 1024.000000"
 preserveAspectRatio="xMidYMid meet">

<g transform="translate(0.000000,1024.000000) scale(0.100000,-0.100000)"
fill="#000000" stroke="none">
<path d="M5025 8311 c-37 -23 -1307 -1307 -1324 -1339 -30 -56 -7 -145 46
-179 24 -16 61 -18 331 -21 355 -4 311 -16 465 134 177 174 255 244 271 244 9
0 25 -9 36 -20 20 -20 20 -33 20 -1497 l-1 -1478 -369 -375 c-414 -420 -426
-435 -418 -540 8 -106 85 -184 196 -197 96 -11 98 -9 473 363 190 189 352 344
359 344 8 0 167 -153 355 -340 228 -228 352 -344 377 -355 129 -53 271 37 293
187 14 95 -3 117 -417 536 l-373 377 1 1470 c1 809 2 1475 3 1482 2 19 31 43
54 43 14 0 82 -60 201 -179 100 -98 191 -184 203 -190 28 -14 573 -15 625 -1
72 20 112 102 88 176 -10 30 -156 183 -659 691 -355 359 -660 660 -678 668
-43 21 -121 19 -158 -4z"/>
<path d="M3085 6350 l-420 -5 -50 -25 c-70 -34 -140 -108 -178 -188 l-32 -67
-5 -293 c-3 -160 -4 -292 -2 -292 2 0 31 20 65 44 73 51 197 115 284 144 108
37 211 42 943 42 l705 0 0 192 0 193 -215 6 c-118 3 -216 6 -218 7 -1 1 -44
44 -95 95 -97 99 -148 130 -239 147 -28 6 -67 9 -87 8 -20 -1 -225 -5 -456 -8z"/>
<path d="M5820 5906 l0 -195 758 -4 c839 -4 824 -3 983 -71 70 -31 172 -92
243 -147 l28 -22 -3 169 c-4 168 -4 170 -36 235 -40 80 -120 159 -200 197
l-58 27 -857 3 -858 2 0 -194z"/>
<path d="M2657 5514 c-124 -30 -274 -128 -366 -239 -48 -57 -103 -166 -122
-240 -16 -63 -25 -2637 -10 -2775 5 -48 19 -113 30 -145 63 -180 221 -333 403
-390 l79 -25 2433 0 2434 0 68 21 c213 65 383 241 441 459 17 60 18 160 18
1425 0 1106 -3 1370 -13 1415 -8 30 -34 96 -58 147 -75 156 -199 265 -376 331
l-73 27 -862 3 -863 3 0 -153 c0 -134 2 -157 20 -185 44 -72 -12 -67 840 -73
852 -6 789 0 865 -75 76 -77 70 55 73 -1423 2 -950 -1 -1335 -9 -1365 -14 -54
-81 -121 -134 -136 -29 -8 -694 -11 -2371 -11 -2073 0 -2336 2 -2375 15 -54
19 -96 58 -120 110 -18 38 -19 96 -19 1347 0 1285 0 1308 20 1361 25 65 76
128 127 153 36 18 80 19 800 24 749 5 762 5 790 26 15 11 38 40 51 64 20 40
22 59 22 182 l0 138 -842 -1 c-690 -1 -854 -3 -901 -15z"/>
<path d="M4355 1239 c-247 -4 -544 -12 -660 -18 -115 -6 -218 -11 -230 -11
-16 0 -14 -3 10 -14 68 -32 792 -56 1630 -56 710 1 1185 12 1435 35 91 8 174
15 185 16 11 1 4 5 -15 10 -127 31 -1497 53 -2355 38z"/>
</g>
</svg>
